<svg width="1238" height="1015" viewBox="0 0 1238 1015" fill="none" xmlns="http://www.w3.org/2000/svg">
<path d="M708 480.522C708 410.957 781.973 324 781.973 324C781.973 324 858 415.304 858 480.522C858 545.739 781.973 574 781.973 574C781.973 574 708 550.087 708 480.522Z" fill="#02DA87"/>
<path d="M595.74 634.68C542.45 589.964 523.386 477.403 523.386 477.403C523.386 477.403 642.198 477.852 692.158 519.773C742.117 561.694 714.897 638.1 714.897 638.1C714.897 638.1 649.03 679.395 595.74 634.68Z" fill="#02DA87"/>
<path d="M880.609 519.61C933.899 474.895 1048.06 475.666 1048.06 475.666C1048.06 475.666 1026.99 592.596 977.027 634.517C927.067 676.438 856.549 636.363 856.549 636.363C856.549 636.363 827.318 564.326 880.609 519.61Z" fill="#02DA87"/>
<path d="M439.198 571.911C386.902 552.877 338.399 482.743 338.399 482.743C338.399 482.743 424.373 460.097 473.4 477.942C522.428 495.786 526.337 551.147 526.337 551.147C526.337 551.147 491.494 590.945 439.198 571.911Z" fill="#02DA87"/>
<path d="M442.912 446.305C394.951 406.061 374.624 308.534 374.624 308.534C374.624 308.534 478.297 312.82 523.261 350.549C568.224 388.278 546.984 453.161 546.984 453.161C546.984 453.161 490.873 486.549 442.912 446.305Z" fill="#02DA87"/>
<path d="M583.435 435.497C552.13 381.276 566.385 282.678 566.385 282.678C566.385 282.678 662.34 322.165 691.688 372.997C721.036 423.829 678.885 477.534 678.885 477.534C678.885 477.534 614.739 489.717 583.435 435.497Z" fill="#02DA87"/>
<path d="M665.827 296.868C646.793 244.572 669.341 162.335 669.341 162.335C669.341 162.335 741.952 213.638 759.796 262.666C777.641 311.693 737.745 350.274 737.745 350.274C737.745 350.274 684.861 349.164 665.827 296.868Z" fill="#02DA87"/>
<path d="M808.577 264.666C827.611 212.37 897.745 163.867 897.745 163.867C897.745 163.867 920.391 249.84 902.546 298.868C884.702 347.895 829.341 351.805 829.341 351.805C829.341 351.805 789.543 316.962 808.577 264.666Z" fill="#02DA87"/>
<path d="M881.065 372.997C912.37 318.776 1004.89 281.822 1004.89 281.822C1004.89 281.822 1018.67 384.665 989.318 435.497C959.971 486.329 892.385 476.678 892.385 476.678C892.385 476.678 849.761 427.217 881.065 372.997Z" fill="#02DA87"/>
<path d="M1054.06 350.276C1102.02 310.032 1201.59 306.948 1201.59 306.948C1201.59 306.948 1179.37 408.302 1134.4 446.031C1089.44 483.76 1029.23 451.576 1029.23 451.576C1029.23 451.576 1006.09 390.52 1054.06 350.276Z" fill="#02DA87"/>
<path d="M1102.8 480.942C1155.1 461.907 1237.34 484.456 1237.34 484.456C1237.34 484.456 1186.03 557.066 1137.01 574.911C1087.98 592.755 1049.4 552.86 1049.4 552.86C1049.4 552.86 1050.51 499.976 1102.8 480.942Z" fill="#02DA87"/>
<path d="M427.759 291.255C385.127 255.483 363.536 172.99 363.536 172.99C363.536 172.99 452.07 181.114 492.038 214.651C532.006 248.188 516.745 301.547 516.745 301.547C516.745 301.547 470.391 327.028 427.759 291.255Z" fill="#02DA87"/>
<path d="M527.549 236.261C487.305 188.3 484.222 88.7246 484.222 88.7246C484.222 88.7246 585.576 110.949 623.305 155.912C661.034 200.876 628.849 261.085 628.849 261.085C628.849 261.085 567.793 284.222 527.549 236.261Z" fill="#02DA87"/>
<path d="M627.464 119.977C593.48 79.4764 585 0.321688 585 0.321688C585 0.321688 664.548 24.1568 696.408 62.126C728.268 100.095 707.129 145.87 707.129 145.87C707.129 145.87 661.448 160.477 627.464 119.977Z" fill="#02DA87"/>
<path d="M726 154.87C726 92.2609 787.644 14 787.644 14C787.644 14 851 96.1739 851 154.87C851 213.565 787.644 239 787.644 239C787.644 239 726 217.478 726 154.87Z" fill="#02DA87"/>
<path d="M884.666 63.126C918.65 22.6255 995.129 0.529204 995.129 0.529204C995.129 0.529204 985.47 83.0077 953.61 120.977C921.75 158.946 873 146.078 873 146.078C873 146.078 850.682 103.626 884.666 63.126Z" fill="#02DA87"/>
<path d="M946.078 157.912C986.322 109.951 1083.85 89.6239 1083.85 89.6239C1083.85 89.6239 1079.56 193.297 1041.83 238.261C1004.1 283.224 939.222 261.984 939.222 261.984C939.222 261.984 905.834 205.873 946.078 157.912Z" fill="#02DA87"/>
<path d="M1084.12 210.651C1126.76 174.878 1211.75 167.94 1211.75 167.94C1211.75 167.94 1188.37 253.719 1148.4 287.255C1108.44 320.792 1058.54 296.498 1058.54 296.498C1058.54 296.498 1041.49 246.424 1084.12 210.651Z" fill="#02DA87"/>
<path d="M800.554 642.901L803.162 615.163L750 625" stroke="#655853" stroke-width="6"/>
<path d="M781.769 634.035L774.5 623.804L756 623.804" stroke="#655853" stroke-width="6"/>
<path d="M776 637C776 637 777.077 629.156 770 626.606C762.923 624.057 755.714 625.606 755.714 625.606" stroke="#655853" stroke-width="3"/>
<path d="M659.621 702.593C671.644 741.766 729.621 722.876 799.908 702.592C881.333 679.094 950.155 655.247 1009.36 708.496" stroke="#655853" stroke-width="10" stroke-linecap="round"/>
<g filter="url(#filter0_d_0_1)">
<path d="M789.836 630.068C752.512 1089.49 821.158 979.455 821.158 979.455" stroke="#655853" stroke-width="30" stroke-linecap="round"/>
</g>
<path d="M820.498 800.648C825.381 798.891 829.873 797.328 833.975 795.961C838.076 794.398 841.982 792.934 845.693 791.566C849.6 790.004 853.408 788.539 857.119 787.172C861.025 785.609 865.225 783.949 869.717 782.191L871.768 782.777V813.539C875.869 807.484 879.58 802.504 882.9 798.598C886.221 794.496 889.443 791.273 892.568 788.93C895.693 786.391 898.721 784.633 901.65 783.656C904.775 782.68 908.096 782.191 911.611 782.191C917.275 782.191 921.768 783.852 925.088 787.172C928.408 790.297 930.068 794.496 930.068 799.77C930.068 804.652 928.896 808.461 926.553 811.195C924.209 813.734 921.084 815.004 917.178 815.004C915.029 815.004 912.881 814.613 910.732 813.832C908.779 812.855 906.436 811 903.701 808.266C901.943 806.703 900.283 805.531 898.721 804.75C897.158 803.969 895.889 803.578 894.912 803.578C892.568 803.578 890.029 804.555 887.295 806.508C884.756 808.266 882.314 810.512 879.971 813.246C877.627 815.98 875.674 818.91 874.111 822.035C872.549 825.16 871.768 828.09 871.768 830.824V906.117C871.768 910.805 872.158 914.711 872.939 917.836C873.721 920.961 875.186 923.5 877.334 925.453C879.482 927.211 882.412 928.578 886.123 929.555C889.834 930.531 894.521 931.117 900.186 931.312V936H819.619V931.312C824.893 930.336 829.092 929.359 832.217 928.383C835.537 927.211 837.979 925.844 839.541 924.281C841.299 922.719 842.373 920.668 842.764 918.129C843.35 915.395 843.643 911.977 843.643 907.875V824.379C843.643 816.957 842.764 811.781 841.006 808.852C839.248 805.727 836.318 804.164 832.217 804.164C830.068 804.164 828.115 804.262 826.357 804.457C824.795 804.652 822.842 805.043 820.498 805.629V800.648ZM1071.57 883.559C1064.54 901.918 1054.97 915.785 1042.86 925.16C1030.95 934.535 1016.88 939.223 1000.67 939.223C991.104 939.223 982.412 937.465 974.6 933.949C966.982 930.434 960.439 925.453 954.971 919.008C949.502 912.562 945.303 904.75 942.373 895.57C939.443 886.391 937.979 876.039 937.979 864.516C937.979 852.211 939.639 840.98 942.959 830.824C946.475 820.668 951.26 811.977 957.314 804.75C963.564 797.328 970.986 791.566 979.58 787.465C988.174 783.363 997.646 781.312 1008 781.312C1016.79 781.312 1024.79 782.973 1032.02 786.293C1039.44 789.613 1045.69 794.301 1050.77 800.355C1052.92 803.09 1054.68 805.824 1056.04 808.559C1057.61 811.293 1058.88 814.32 1059.85 817.641C1061.03 820.961 1062 824.672 1062.78 828.773C1063.56 832.875 1064.35 837.562 1065.13 842.836H962.295C962.686 853.578 963.564 862.465 964.932 869.496C966.494 876.332 968.936 882.973 972.256 889.418C981.826 907.387 995.889 916.371 1014.44 916.371C1025.19 916.371 1034.46 913.734 1042.28 908.461C1050.28 903.188 1058.29 894.203 1066.3 881.508L1071.57 883.559ZM1031.14 831.703C1028.99 817.25 1025.48 807.289 1020.6 801.82C1015.91 796.156 1008.49 793.324 998.33 793.324C987.979 793.324 979.873 796.352 974.014 802.406C968.35 808.461 964.639 818.227 962.881 831.703H1031.14ZM1220.11 883.559C1213.08 901.918 1203.51 915.785 1191.4 925.16C1179.48 934.535 1165.42 939.223 1149.21 939.223C1139.64 939.223 1130.95 937.465 1123.13 933.949C1115.52 930.434 1108.97 925.453 1103.51 919.008C1098.04 912.562 1093.84 904.75 1090.91 895.57C1087.98 886.391 1086.51 876.039 1086.51 864.516C1086.51 852.211 1088.17 840.98 1091.49 830.824C1095.01 820.668 1099.79 811.977 1105.85 804.75C1112.1 797.328 1119.52 791.566 1128.12 787.465C1136.71 783.363 1146.18 781.312 1156.53 781.312C1165.32 781.312 1173.33 782.973 1180.56 786.293C1187.98 789.613 1194.23 794.301 1199.31 800.355C1201.46 803.09 1203.21 805.824 1204.58 808.559C1206.14 811.293 1207.41 814.32 1208.39 817.641C1209.56 820.961 1210.54 824.672 1211.32 828.773C1212.1 832.875 1212.88 837.562 1213.66 842.836H1110.83C1111.22 853.578 1112.1 862.465 1113.47 869.496C1115.03 876.332 1117.47 882.973 1120.79 889.418C1130.36 907.387 1144.42 916.371 1162.98 916.371C1173.72 916.371 1183 913.734 1190.81 908.461C1198.82 903.188 1206.83 894.203 1214.83 881.508L1220.11 883.559ZM1179.68 831.703C1177.53 817.25 1174.01 807.289 1169.13 801.82C1164.44 796.156 1157.02 793.324 1146.87 793.324C1136.51 793.324 1128.41 796.352 1122.55 802.406C1116.88 808.461 1113.17 818.227 1111.42 831.703H1179.68Z" fill="#655853"/>
<path d="M153.576 790.688C151.037 790.883 148.889 791.273 147.131 791.859C145.568 792.445 144.006 793.617 142.443 795.375C141.076 797.133 139.514 799.77 137.756 803.285C136.193 806.605 134.24 811.098 131.896 816.762L89.123 924.281C86.584 930.336 84.6309 934.535 83.2637 936.879C81.8965 939.418 80.7246 940.688 79.748 940.688C78.7715 940.688 77.6973 940.004 76.5254 938.637C75.5488 937.465 74.5723 935.219 73.5957 931.898C73.2051 931.117 72.8145 930.238 72.4238 929.262C72.0332 928.09 71.5449 926.625 70.959 924.867L30.8223 829.066C26.916 820.473 23.791 813.637 21.4473 808.559C19.1035 803.48 16.8574 799.672 14.709 797.133C12.7559 794.594 10.7051 792.934 8.55664 792.152C6.4082 791.371 3.67383 790.883 0.353516 790.688V785.414H65.6855V790.688C60.2168 791.078 56.3105 791.957 53.9668 793.324C51.8184 794.691 50.7441 796.742 50.7441 799.477C50.7441 801.234 50.9395 803.285 51.3301 805.629C51.916 807.777 52.6973 810.023 53.6738 812.367L87.6582 897.914L120.764 811.195C121.545 809.633 122.033 807.973 122.229 806.215C122.424 804.457 122.521 802.797 122.521 801.234C122.521 794.984 117.443 791.469 107.287 790.688V785.414H153.576V790.688ZM221.252 783.07V902.016C221.252 908.07 221.447 912.953 221.838 916.664C222.424 920.18 223.596 923.012 225.354 925.16C227.111 927.113 229.553 928.48 232.678 929.262C235.998 930.043 240.49 930.727 246.154 931.312V936H166.76V931.312C172.619 930.922 177.209 930.336 180.529 929.555C184.045 928.578 186.682 927.113 188.439 925.16C190.393 923.012 191.662 920.18 192.248 916.664C192.834 912.953 193.127 908.07 193.127 902.016V824.379C193.127 816.957 192.248 811.781 190.49 808.852C188.928 805.727 186.193 804.164 182.287 804.164C180.725 804.164 178.869 804.262 176.721 804.457C174.768 804.652 172.717 804.945 170.568 805.336L168.225 805.629V800.648L219.787 782.191L221.252 783.07ZM204.553 707.484C209.24 707.484 213.244 709.242 216.564 712.758C219.885 716.078 221.545 720.082 221.545 724.77C221.545 729.652 219.885 733.754 216.564 737.074C213.439 740.199 209.338 741.762 204.26 741.762C199.377 741.762 195.373 740.199 192.248 737.074C189.123 733.754 187.561 729.652 187.561 724.77C187.561 720.082 189.221 716.078 192.541 712.758C195.861 709.242 199.865 707.484 204.553 707.484ZM339.904 795.961H305.92V892.055C305.92 902.797 307.287 910.512 310.021 915.199C312.756 919.691 317.15 921.938 323.205 921.938C327.111 921.938 330.529 921.156 333.459 919.594C336.389 917.836 339.807 914.711 343.713 910.219L347.814 914.32C337.268 930.922 323.791 939.223 307.385 939.223C287.658 939.223 277.795 925.062 277.795 896.742V795.961H260.217C259.436 795.766 259.045 795.082 259.045 793.91C259.045 791.957 260.9 789.809 264.611 787.465C273.4 782.387 284.24 770.473 297.131 751.723C298.107 750.16 299.182 748.695 300.354 747.328C301.721 745.766 302.893 744.105 303.869 742.348C304.65 742.348 305.139 742.641 305.334 743.227C305.725 743.812 305.92 744.984 305.92 746.742V785.414H339.904V795.961ZM470.861 900.844C470.861 908.266 471.545 913.441 472.912 916.371C474.279 919.105 476.916 920.473 480.822 920.473C485.314 920.473 490.197 918.422 495.471 914.32V922.816C489.807 929.066 484.826 933.363 480.529 935.707C476.232 938.051 471.252 939.223 465.588 939.223C458.752 939.223 453.674 937.367 450.354 933.656C447.229 929.75 445.275 923.305 444.494 914.32C434.338 923.109 425.451 929.457 417.834 933.363C410.217 937.27 402.795 939.223 395.568 939.223C385.021 939.223 376.428 935.902 369.787 929.262C363.342 922.621 360.119 914.027 360.119 903.48C360.119 898.207 361.096 892.934 363.049 887.66C365.197 882.191 368.225 877.797 372.131 874.477C375.646 871.352 378.869 868.715 381.799 866.566C384.924 864.223 388.928 861.879 393.811 859.535C398.693 856.996 405.041 854.164 412.854 851.039C420.666 847.914 431.018 843.715 443.908 838.441V817.055C443.908 807.875 441.662 800.941 437.17 796.254C432.873 791.566 426.623 789.223 418.42 789.223C411.584 789.223 405.822 790.883 401.135 794.203C396.643 797.328 394.396 801.137 394.396 805.629C394.396 807.387 394.592 809.633 394.982 812.367C395.568 815.102 395.861 817.348 395.861 819.105C395.861 823.012 394.299 826.332 391.174 829.066C388.244 831.801 384.826 833.168 380.92 833.168C377.014 833.168 373.596 831.801 370.666 829.066C367.932 826.137 366.564 822.719 366.564 818.812C366.564 814.516 367.736 810.121 370.08 805.629C372.619 801.137 376.037 797.133 380.334 793.617C384.826 789.711 390.783 786.684 398.205 784.535C405.822 782.387 414.025 781.312 422.814 781.312C432.971 781.312 441.467 783.07 448.303 786.586C455.334 789.906 460.705 794.594 464.416 800.648C466.76 804.555 468.42 809.145 469.396 814.418C470.373 819.496 470.861 826.43 470.861 835.219V900.844ZM443.908 846.645C433.752 850.355 425.061 853.969 417.834 857.484C410.803 860.805 405.041 864.32 400.549 868.031C396.252 871.547 393.127 875.355 391.174 879.457C389.221 883.559 388.244 888.051 388.244 892.934V894.398C388.244 897.914 388.83 901.332 390.002 904.652C391.174 907.777 392.736 910.512 394.689 912.855C396.838 915.199 399.279 917.055 402.014 918.422C404.748 919.789 407.58 920.473 410.51 920.473C414.025 920.473 417.932 919.789 422.229 918.422C426.721 916.859 430.92 915.004 434.826 912.855C438.732 910.707 441.174 908.461 442.15 906.117C443.322 903.773 443.908 900.062 443.908 894.984V846.645ZM502.502 722.133C508.361 720.766 513.537 719.594 518.029 718.617C522.717 717.445 527.111 716.273 531.213 715.102C535.51 713.93 539.611 712.758 543.518 711.586C547.424 710.414 551.525 709.047 555.822 707.484L557.287 708.363V907.875C557.287 912.562 557.58 916.371 558.166 919.301C558.752 922.035 559.924 924.281 561.682 926.039C563.439 927.602 565.881 928.773 569.006 929.555C572.326 930.336 576.623 930.922 581.896 931.312V936H503.381V931.312C508.654 930.727 512.951 930.043 516.271 929.262C519.592 928.285 522.229 926.918 524.182 925.16C526.135 923.207 527.404 920.766 527.99 917.836C528.771 914.906 529.162 911.195 529.162 906.703V747.328C529.162 739.516 528.088 734.242 525.939 731.508C523.986 728.578 520.373 727.113 515.1 727.113C513.537 727.113 511.779 727.211 509.826 727.406C508.068 727.406 506.311 727.504 504.553 727.699H502.502V722.133ZM748.303 790.688C744.396 791.078 741.174 792.348 738.635 794.496C736.291 796.645 734.045 800.355 731.896 805.629L680.627 942.152C675.939 954.262 671.447 964.516 667.15 972.914C662.854 981.508 658.459 988.441 653.967 993.715C649.67 998.988 645.08 1002.8 640.197 1005.14C635.314 1007.68 629.943 1008.95 624.084 1008.95C616.857 1008.95 610.9 1007.09 606.213 1003.38C601.721 999.867 599.475 995.277 599.475 989.613C599.475 985.316 600.842 981.801 603.576 979.066C606.311 976.527 609.729 975.258 613.83 975.258C616.564 975.258 619.396 975.453 622.326 975.844C625.256 976.43 628.186 977.309 631.115 978.48C633.068 979.457 634.729 980.043 636.096 980.238C637.463 980.434 638.635 980.531 639.611 980.531C642.15 980.531 644.982 979.164 648.107 976.43C651.232 973.891 654.064 970.473 656.604 966.176C657.971 963.637 659.436 960.512 660.998 956.801C662.561 953.285 664.025 949.77 665.393 946.254C666.76 942.738 667.834 939.418 668.615 936.293C669.592 933.363 670.08 931.312 670.08 930.141C670.08 927.406 668.713 923.109 665.979 917.25C663.439 911.195 659.826 904.066 655.139 895.863C654.162 894.496 653.283 893.031 652.502 891.469C651.721 889.906 651.037 888.051 650.451 885.902L649.279 883.266L611.193 800.941C608.85 795.277 603.186 791.664 594.201 790.102V785.414H663.049V790.688C655.822 791.078 650.744 791.957 647.814 793.324C645.08 794.496 643.713 796.547 643.713 799.477C643.713 801.625 643.908 803.773 644.299 805.922C644.885 807.875 645.861 810.023 647.229 812.367L685.607 896.742L717.834 804.457C719.006 802.504 719.592 800.746 719.592 799.184C719.592 796.449 718.127 794.398 715.197 793.031C712.268 791.469 708.264 790.688 703.186 790.688V785.414H748.303V790.688Z" fill="#5CC0AF" fill-opacity="0.941176"/>
<path d="M174.696 731.221C188.609 707.123 231.625 691.795 231.625 691.795C231.625 691.795 239.701 738.629 226.657 761.221C213.614 783.813 181.625 778.397 181.625 778.397C181.625 778.397 160.783 755.319 174.696 731.221Z" fill="#02DA87"/>
<defs>
<filter id="filter0_d_0_1" x="760.104" y="614.694" width="79.6724" height="399.679" filterUnits="userSpaceOnUse" color-interpolation-filters="sRGB">
<feFlood flood-opacity="0" result="BackgroundImageFix"/>
<feColorMatrix in="SourceAlpha" type="matrix" values="0 0 0 0 0 0 0 0 0 0 0 0 0 0 0 0 0 0 127 0" result="hardAlpha"/>
<feOffset dy="4"/>
<feGaussianBlur stdDeviation="2"/>
<feComposite in2="hardAlpha" operator="out"/>
<feColorMatrix type="matrix" values="0 0 0 0 0 0 0 0 0 0 0 0 0 0 0 0 0 0 0.25 0"/>
<feBlend mode="normal" in2="BackgroundImageFix" result="effect1_dropShadow_0_1"/>
<feBlend mode="normal" in="SourceGraphic" in2="effect1_dropShadow_0_1" result="shape"/>
</filter>
</defs>
</svg>
